<?xml version="1.0" standalone="no"?>
<!DOCTYPE svg PUBLIC "-//W3C//DTD SVG 20010904//EN"
 "http://www.w3.org/TR/2001/REC-SVG-20010904/DTD/svg10.dtd">
<svg version="1.0" xmlns="http://www.w3.org/2000/svg"
 width="331.000000pt" height="186.000000pt" viewBox="0 0 331.000000 186.000000"
 preserveAspectRatio="xMidYMid meet">

<g transform="translate(0.000000,186.000000) scale(0.100000,-0.100000)"
fill="#000000" stroke="none">
<path d="M2514 1676 c-39 -14 -114 -43 -165 -66 -52 -22 -104 -40 -117 -40
-13 0 -50 18 -84 40 -116 78 -138 84 -182 49 -34 -27 -33 -45 8 -135 l35 -74
-32 -16 c-17 -9 -45 -24 -61 -34 -17 -9 -59 -31 -94 -50 l-62 -33 -118 56
c-65 30 -130 59 -144 62 -37 9 -138 -37 -138 -62 0 -10 36 -63 80 -118 l80
-99 -61 -62 c-42 -42 -60 -67 -56 -78 4 -9 12 -16 20 -16 34 0 120 34 166 65
38 26 61 35 93 36 24 0 81 6 128 13 47 7 86 13 87 12 1 -1 -41 -51 -93 -111
-106 -123 -128 -157 -119 -185 5 -17 16 -20 63 -20 67 0 140 30 208 87 38 31
57 38 112 45 78 9 185 43 202 63 7 8 10 30 8 49 -4 32 -2 35 37 47 69 21 85
35 85 75 0 24 -8 43 -25 60 l-25 25 27 10 c158 60 395 184 455 238 61 55 73
82 53 120 -17 34 -30 40 -110 52 -138 22 -186 21 -261 -5z m136 9 c0 -2 -18
-14 -40 -25 -23 -12 -45 -32 -50 -45 -10 -26 -114 -85 -150 -85 -11 0 -23 -7
-26 -15 -3 -8 -21 -20 -40 -27 -26 -9 -31 -15 -22 -25 17 -21 -6 -41 -27 -23
-12 10 -13 16 -4 26 8 10 8 14 0 14 -6 0 -11 -4 -11 -10 0 -13 -54 -40 -81
-40 -13 0 -32 -9 -44 -20 -12 -12 -39 -24 -61 -27 -21 -3 -53 -17 -72 -30 -19
-12 -50 -23 -68 -23 -18 0 -37 -6 -41 -14 -10 -19 -183 -86 -219 -86 -15 0
-58 -14 -96 -32 -40 -18 -72 -28 -77 -22 -5 5 -36 45 -70 88 l-63 79 61 25
c65 26 75 38 39 45 -13 2 -6 3 15 0 21 -2 86 -28 145 -57 l107 -54 200 103
c249 129 467 228 571 259 75 23 124 32 124 21z m68 -9 c20 -11 21 -14 8 -25
-12 -10 -20 -9 -40 4 -43 28 -14 47 32 21z m-43 -22 c20 -15 20 -15 1 -30 -26
-19 -33 -18 -47 7 -9 17 -8 23 2 30 18 11 21 11 44 -7z m-540 -50 c58 -37 73
-50 63 -59 -18 -15 -177 -90 -181 -84 -2 2 -17 36 -34 76 l-31 71 21 20 c47
42 61 40 162 -24z m635 36 c-15 -28 -3 -66 31 -94 26 -22 27 -25 11 -39 -46
-40 -429 -234 -440 -223 -1 2 3 15 9 29 10 21 9 30 -2 43 -11 13 -25 15 -71
10 -108 -11 -265 -90 -349 -176 -44 -45 -49 -47 -130 -59 -134 -19 -159 -21
-159 -17 0 2 19 23 43 46 30 31 66 52 125 76 46 18 91 30 99 27 9 -4 21 1 28
10 15 21 75 46 93 40 7 -3 23 4 35 15 24 22 64 37 86 33 7 -1 23 6 35 17 30
28 61 42 90 42 14 0 26 4 26 10 0 12 54 40 78 40 11 0 25 7 33 16 14 17 138
81 210 108 25 10 59 28 75 41 37 31 59 33 44 5z m57 14 c-3 -3 -12 -4 -19 -1
-8 3 -5 6 6 6 11 1 17 -2 13 -5z m-197 -46 c0 -12 -48 -9 -56 4 -4 6 1 17 12
25 16 12 20 11 31 -4 7 -9 13 -20 13 -25z m-192 -105 c5 -17 -26 -29 -40 -15
-6 6 -7 15 -3 22 9 14 37 9 43 -7z m-230 -100 c5 -17 -26 -29 -40 -15 -6 6 -7
15 -3 22 9 14 37 9 43 -7z m-120 -56 c2 -12 -3 -17 -17 -17 -12 0 -21 6 -21
13 0 31 32 34 38 4z m271 4 c47 -30 -62 -153 -349 -393 -64 -54 -99 -76 -110
-72 -33 15 -78 15 -133 1 -32 -9 -57 -12 -55 -7 3 8 178 213 248 290 68 75
228 162 330 180 25 4 47 8 50 9 3 0 11 -3 19 -8z m-401 -54 c2 -12 -3 -17 -17
-17 -12 0 -21 6 -21 13 0 31 32 34 38 4z m410 -100 c4 -41 -11 -49 -29 -15 -9
18 -8 24 5 34 16 11 16 13 -1 18 -16 4 -16 5 2 3 14 -2 20 -11 23 -40z m-638
10 c0 -16 -36 -50 -110 -105 -41 -30 -61 -39 -81 -35 -14 2 -43 0 -64 -6 l-39
-10 54 54 c74 75 240 145 240 102z m593 -26 c7 -33 33 -47 56 -29 14 12 14 11
2 -4 -7 -10 -36 -25 -64 -33 -46 -14 -52 -13 -68 1 -18 16 -17 18 19 55 20 21
40 38 43 39 4 0 9 -13 12 -29z m-76 -115 c4 -37 -4 -45 -25 -24 -18 18 -15 46
6 51 13 4 12 5 -5 6 -29 1 -39 -33 -19 -64 20 -31 44 -32 56 -2 6 16 9 18 9 5
2 -31 -82 -66 -199 -83 l-45 -6 60 53 c33 29 76 67 95 85 42 37 61 31 67 -21z"/>
<path d="M1308 983 c-35 -15 -51 -33 -28 -33 16 0 80 33 80 42 0 10 -7 9 -52
-9z"/>
<path d="M1173 927 c-18 -7 -32 -16 -30 -22 2 -11 7 -10 50 7 15 6 27 14 27
19 0 11 -7 11 -47 -4z"/>
<path d="M1020 883 c-30 -6 -51 -23 -28 -23 31 0 78 13 78 21 0 9 -7 9 -50 2z"/>
<path d="M230 870 c0 -5 20 -10 45 -10 25 0 45 5 45 10 0 6 -20 10 -45 10 -25
0 -45 -4 -45 -10z"/>
<path d="M390 860 c20 -13 80 -13 80 0 0 6 -21 10 -47 10 -35 0 -44 -3 -33
-10z"/>
<path d="M530 850 c0 -5 20 -10 45 -10 25 0 45 5 45 10 0 6 -20 10 -45 10 -25
0 -45 -4 -45 -10z"/>
<path d="M835 850 c-4 -6 11 -10 39 -10 25 0 48 5 51 10 4 6 -11 10 -39 10
-25 0 -48 -4 -51 -10z"/>
<path d="M703 843 c15 -2 37 -2 50 0 12 2 0 4 -28 4 -27 0 -38 -2 -22 -4z"/>
<path d="M1740 761 c0 -5 12 -12 26 -15 59 -15 67 -120 16 -224 -24 -50 -134
-182 -152 -182 -4 0 -9 46 -12 103 -3 86 -8 111 -29 153 -33 65 -77 94 -141
94 -52 0 -116 -24 -125 -46 -3 -10 -13 -5 -34 15 -76 77 -305 62 -389 -24 -57
-59 -41 -130 35 -155 18 -6 85 -17 150 -24 133 -16 156 -28 137 -71 -7 -14
-28 -33 -47 -41 -44 -18 -138 -17 -190 1 -48 17 -45 17 -45 6 0 -36 199 -50
258 -18 54 29 66 94 21 117 -10 6 -72 17 -136 24 -137 17 -166 26 -189 61 -14
21 -14 30 -4 55 16 39 51 64 119 84 95 28 217 18 263 -21 10 -9 20 -38 23 -68
9 -69 37 -98 95 -97 23 1 48 6 56 13 21 17 11 21 -21 9 -44 -17 -85 -3 -100
33 -24 58 13 114 86 127 125 23 191 -68 191 -266 0 -68 3 -94 12 -94 16 0 146
135 174 181 56 93 60 211 7 257 -26 22 -55 29 -55 13z"/>
<path d="M721 643 c-28 -42 -70 -121 -93 -174 -23 -54 -44 -97 -45 -95 -2 1
-14 52 -28 113 -17 76 -23 125 -19 156 4 29 2 47 -5 52 -20 12 -26 -3 -26 -68
0 -100 -68 -228 -143 -274 -43 -26 -97 -29 -147 -9 -38 16 -55 42 -55 85 0 59
93 94 148 55 33 -23 38 -10 6 15 -32 25 -83 27 -124 6 -103 -53 -36 -196 92
-195 47 1 109 31 143 71 15 19 43 66 61 104 20 42 35 64 38 55 2 -8 14 -59 26
-112 12 -54 25 -100 29 -102 4 -3 24 36 45 87 39 95 105 222 112 214 2 -2 0
-28 -6 -57 -5 -29 -10 -69 -10 -89 0 -85 43 -161 92 -161 21 0 20 2 -10 20
-49 30 -66 79 -59 170 3 41 14 103 25 138 11 34 16 64 12 67 -5 3 -31 -29 -59
-72z"/>
<path d="M2013 696 c-97 -31 -156 -90 -156 -157 0 -75 72 -116 146 -85 21 8
37 20 37 26 0 6 -11 5 -30 -5 -107 -55 -185 52 -100 140 46 48 126 76 215 77
79 0 114 -11 144 -43 32 -34 27 -75 -13 -115 -30 -30 -37 -33 -61 -24 -14 5
-37 10 -51 10 -21 0 -24 3 -18 28 3 15 15 39 25 54 23 33 24 39 4 31 -20 -7
-45 -55 -45 -87 0 -14 -5 -28 -10 -31 -6 -4 -8 -28 -4 -59 5 -38 2 -61 -10
-84 -26 -50 -97 -60 -148 -22 -40 30 -46 19 -8 -14 37 -30 102 -35 138 -10 30
21 52 66 52 109 0 28 4 35 19 35 10 0 32 3 49 6 27 5 32 2 46 -24 9 -17 16
-44 16 -61 0 -57 16 -81 53 -81 21 0 41 8 52 20 16 18 20 19 27 5 11 -18 49
-20 66 -3 9 9 15 9 24 0 17 -17 53 -15 69 4 11 14 13 14 21 0 13 -23 53 -20
70 6 l15 22 12 -22 c14 -26 52 -29 74 -7 13 13 16 13 27 0 16 -19 45 -19 64 1
15 14 17 14 22 0 9 -23 50 -20 75 5 11 11 27 36 35 55 20 47 32 43 36 -12 3
-53 21 -70 60 -61 24 6 73 66 62 76 -2 3 -19 -12 -38 -32 -45 -50 -66 -42 -66
24 0 43 -3 49 -24 55 -13 3 -27 15 -30 27 -6 22 -7 22 -21 3 -18 -23 -20 -46
-4 -46 15 0 2 -50 -18 -72 -26 -29 -51 -22 -61 15 l-8 32 -15 -30 c-17 -36
-52 -41 -57 -8 -5 31 33 66 64 59 13 -4 24 -2 24 3 0 17 -44 20 -67 5 -13 -8
-34 -32 -48 -54 -30 -47 -61 -53 -75 -15 -7 20 -5 41 11 87 28 83 35 177 16
203 -32 43 -67 -31 -67 -143 0 -57 -2 -63 -24 -72 -13 -5 -37 -28 -53 -52 -37
-55 -66 -61 -79 -16 l-10 33 -15 -30 c-20 -42 -55 -42 -52 0 3 36 30 58 61 50
12 -3 22 -1 22 4 0 13 -33 19 -58 10 -12 -5 -36 -31 -52 -58 -32 -51 -64 -71
-83 -52 -5 5 -14 36 -18 67 -4 30 -15 64 -24 74 -16 17 -15 19 10 36 31 20 55
63 55 97 0 33 -36 76 -76 93 -42 17 -165 17 -221 0z m674 -126 c-3 -36 -12
-82 -20 -101 l-15 -34 -1 76 c-1 80 14 143 31 133 7 -4 9 -32 5 -74z m-519
-77 c-10 -2 -26 -2 -35 0 -10 3 -2 5 17 5 19 0 27 -2 18 -5z m472 -86 c0 -28
-26 -67 -46 -67 -23 0 -21 45 3 73 22 24 43 21 43 -6z"/>
<path d="M472 149 c-11 -24 -17 -46 -14 -49 2 -3 7 1 9 8 5 14 53 17 53 2 0
-5 5 -10 10 -10 11 0 -14 68 -30 84 -6 6 -17 -8 -28 -35z m38 -10 c0 -5 -7 -9
-15 -9 -15 0 -20 12 -9 23 8 8 24 -1 24 -14z"/>
<path d="M570 146 c0 -25 5 -46 10 -46 6 0 10 18 10 39 0 22 -4 43 -10 46 -6
4 -10 -12 -10 -39z"/>
<path d="M630 145 c0 -25 5 -45 10 -45 6 0 10 7 10 15 0 8 5 15 10 15 6 0 13
-7 16 -15 10 -26 19 -16 19 20 0 37 -16 55 -47 55 -15 0 -18 -9 -18 -45z m53
10 c1 -5 -6 -11 -15 -13 -11 -2 -18 3 -18 13 0 17 30 18 33 0z"/>
<path d="M740 143 c1 -38 3 -44 11 -30 5 9 18 17 28 17 27 0 36 32 15 47 -10
7 -26 13 -36 13 -15 0 -18 -8 -18 -47z m50 12 c0 -8 -9 -15 -20 -15 -11 0 -20
7 -20 15 0 8 9 15 20 15 11 0 20 -7 20 -15z"/>
<path d="M848 184 c-5 -4 -8 -25 -8 -46 0 -37 1 -38 33 -37 22 1 25 3 10 6
-18 3 -23 12 -25 45 -2 22 -6 36 -10 32z"/>
<path d="M940 150 c-12 -23 -18 -45 -14 -48 4 -4 9 -1 11 6 5 14 53 17 53 2 0
-5 4 -10 10 -10 8 0 -19 72 -33 86 -3 3 -15 -13 -27 -36z m26 -17 c-10 -10
-19 5 -10 18 6 11 8 11 12 0 2 -7 1 -15 -2 -18z"/>
<path d="M1040 148 c0 -27 5 -48 10 -48 6 0 10 12 10 26 l0 27 21 -27 c11 -14
25 -26 30 -26 12 0 12 77 -1 85 -6 4 -10 -7 -10 -25 l0 -30 -30 32 -29 33 -1
-47z"/>
<path d="M1160 145 c0 -44 1 -45 33 -44 27 1 29 2 9 7 -13 4 -23 12 -23 17 0
6 10 13 23 17 22 6 21 6 -4 7 -35 1 -37 21 -3 21 14 0 25 5 25 10 0 6 -13 10
-30 10 -29 0 -30 -2 -30 -45z"/>
<path d="M1305 180 c-3 -5 1 -10 9 -10 12 0 16 -10 16 -35 0 -19 5 -35 10 -35
6 0 10 16 10 35 0 19 5 35 10 35 6 0 10 5 10 10 0 6 -13 10 -29 10 -17 0 -33
-4 -36 -10z"/>
<path d="M1407 183 c-11 -10 -8 -83 3 -83 6 0 10 7 10 15 0 8 5 15 10 15 6 0
13 -7 16 -15 10 -26 19 -16 21 22 1 21 -3 41 -10 45 -15 10 -41 10 -50 1z m51
-25 c-7 -19 -38 -22 -38 -4 0 10 9 16 21 16 12 0 19 -5 17 -12z"/>
<path d="M1522 145 c-12 -25 -17 -45 -12 -45 6 0 10 5 10 10 0 15 48 12 53 -2
2 -7 7 -10 11 -6 6 5 -29 88 -37 88 -2 0 -13 -20 -25 -45z m38 -6 c0 -5 -7 -9
-15 -9 -9 0 -12 6 -9 15 6 15 24 11 24 -6z"/>
<path d="M1636 174 c-19 -18 -21 -45 -4 -62 15 -15 45 -15 54 0 5 8 2 9 -9 5
-21 -8 -48 19 -40 39 4 10 14 14 29 11 27 -5 33 8 8 17 -21 8 -20 8 -38 -10z"/>
<path d="M1730 146 c0 -25 5 -46 10 -46 6 0 10 7 10 15 0 20 17 19 29 -2 5
-10 13 -14 17 -10 4 4 1 15 -8 24 -15 15 -15 18 0 42 l16 26 -27 -24 c-22 -20
-27 -21 -27 -8 0 9 -4 19 -10 22 -6 4 -10 -12 -10 -39z"/>
<path d="M1840 146 c0 -25 5 -46 10 -46 6 0 10 18 10 39 0 22 -4 43 -10 46 -6
4 -10 -12 -10 -39z"/>
<path d="M1902 145 c0 -40 2 -44 7 -20 l6 29 21 -27 c12 -15 25 -27 28 -27 3
0 5 21 4 48 -1 38 -2 41 -5 13 l-4 -34 -29 34 -29 34 1 -50z"/>
<path d="M2026 174 c-33 -32 -10 -79 36 -72 22 3 40 38 19 38 -6 0 -11 -7 -11
-15 0 -21 -27 -19 -39 3 -12 22 3 42 32 42 10 0 15 5 12 10 -9 15 -31 12 -49
-6z"/>
<path d="M2193 183 c-20 -7 -15 -31 7 -43 29 -16 24 -31 -7 -25 -26 5 -27 5
-6 -6 12 -6 29 -9 37 -6 23 9 20 38 -4 44 -27 7 -25 23 3 23 18 0 19 2 7 10
-16 11 -19 11 -37 3z"/>
<path d="M2270 184 c0 -5 7 -19 15 -30 8 -10 15 -28 15 -39 0 -13 8 -4 20 24
21 46 21 69 0 30 l-12 -22 -19 24 c-10 13 -19 19 -19 13z"/>
<path d="M2393 183 c-21 -8 -15 -40 8 -46 28 -8 15 -27 -14 -20 -17 4 -19 3
-11 -6 16 -17 58 -10 62 10 2 9 -9 21 -25 29 l-28 13 30 6 c25 5 27 8 12 14
-10 4 -19 7 -20 6 -1 0 -8 -3 -14 -6z"/>
<path d="M2470 180 c0 -5 5 -10 10 -10 6 0 10 -16 10 -35 0 -19 5 -35 10 -35
6 0 10 16 10 35 0 19 5 35 10 35 6 0 10 5 10 10 0 6 -13 10 -30 10 -16 0 -30
-4 -30 -10z"/>
<path d="M2570 145 c0 -44 0 -45 33 -44 30 2 30 2 5 6 -34 5 -37 30 -5 36 l22
4 -22 2 c-32 2 -29 21 3 21 14 0 23 4 19 10 -3 6 -17 10 -31 10 -22 0 -24 -4
-24 -45z"/>
<path d="M2671 143 c1 -41 2 -44 8 -18 l7 30 13 -24 13 -24 18 23 18 24 5 -29
c3 -21 4 -16 6 18 1 54 -11 61 -29 17 l-13 -31 -18 31 c-10 16 -21 30 -24 30
-3 0 -4 -21 -4 -47z"/>
</g>
</svg>
